<svg xmlns="http://www.w3.org/2000/svg" viewBox="0 0 64 64">
  <rect width="64" height="64" rx="16" fill="#0369a1"/>
  <!-- Gumball cat head shape -->
  <path d="M12 28 C12 20, 16 12, 22 14 C25 15, 27 20, 28 22 C32 20, 36 20, 40 22 C41 20, 43 15, 46 14 C52 12, 56 20, 56 28 C56 42, 46 52, 34 52 C22 52, 12 42, 12 28 Z" fill="#38bdf8" stroke="#0284c7" stroke-width="2"/>
  <!-- Eyes -->
  <ellipse cx="26" cy="30" rx="5" ry="7" fill="#ffffff"/>
  <ellipse cx="42" cy="30" rx="5" ry="7" fill="#ffffff"/>
  <circle cx="27" cy="31" r="2.5" fill="#0f172a"/>
  <circle cx="43" cy="31" r="2.5" fill="#0f172a"/>
  <!-- Cute Red Nose -->
  <ellipse cx="34" cy="36" rx="2" ry="1.5" fill="#f43f5e"/>
  <!-- Smile -->
  <path d="M30 40 Q34 44 38 40" fill="none" stroke="#0f172a" stroke-width="2" stroke-linecap="round"/>
  <!-- Whiskers -->
  <line x1="16" y1="36" x2="22" y2="37" stroke="#0284c7" stroke-width="1.5"/>
  <line x1="16" y1="41" x2="22" y2="40" stroke="#0284c7" stroke-width="1.5"/>
  <line x1="46" y1="37" x2="52" y2="36" stroke="#0284c7" stroke-width="1.5"/>
  <line x1="46" y1="40" x2="52" y2="41" stroke="#0284c7" stroke-width="1.5"/>
</svg>
